<svg xmlns="http://www.w3.org/2000/svg" xmlns:xlink="http://www.w3.org/1999/xlink" contentStyleType="text/css" height="683px" preserveAspectRatio="none" style="width:1737px;height:683px;background:#FFFFFF;" version="1.1" viewBox="0 0 1737 683" width="1737px" zoomAndPan="magnify"><defs/><g><!--cluster Users Service--><g id="cluster_Users Service"><path d="M8.5,6 L117.0088,6 A3.75,3.75 0 0 1 119.5088,8.5 L126.5088,28.2969 L462.5,28.2969 A2.5,2.5 0 0 1 465,30.7969 L465,437.5 A2.5,2.5 0 0 1 462.5,440 L8.5,440 A2.5,2.5 0 0 1 6,437.5 L6,8.5 A2.5,2.5 0 0 1 8.5,6 " fill="#F0F8FF" style="stroke:#000000;stroke-width:1.5;"/><line style="stroke:#000000;stroke-width:1.5;" x1="6" x2="126.5088" y1="28.2969" y2="28.2969"/><text fill="#000000" font-family="sans-serif" font-size="14" font-weight="bold" lengthAdjust="spacing" textLength="107.5088" x="10" y="20.9951">Users Service</text></g><!--cluster Posts Service--><g id="cluster_Posts Service"><path d="M491.5,219 L598.8125,219 A3.75,3.75 0 0 1 601.3125,221.5 L608.3125,241.2969 L1037.5,241.2969 A2.5,2.5 0 0 1 1040,243.7969 L1040,674 A2.5,2.5 0 0 1 1037.5,676.5 L491.5,676.5 A2.5,2.5 0 0 1 489,674 L489,221.5 A2.5,2.5 0 0 1 491.5,219 " fill="#F0FFF0" style="stroke:#000000;stroke-width:1.5;"/><line style="stroke:#000000;stroke-width:1.5;" x1="489" x2="608.3125" y1="241.2969" y2="241.2969"/><text fill="#000000" font-family="sans-serif" font-size="14" font-weight="bold" lengthAdjust="spacing" textLength="106.3125" x="493" y="233.9951">Posts Service</text></g><!--cluster Statistics Service--><g id="cluster_Statistics Service"><path d="M1066.5,464 L1204.7451,464 A3.75,3.75 0 0 1 1207.2451,466.5 L1214.2451,486.2969 L1727.5,486.2969 A2.5,2.5 0 0 1 1730,488.7969 L1730,665.5 A2.5,2.5 0 0 1 1727.5,668 L1066.5,668 A2.5,2.5 0 0 1 1064,665.5 L1064,466.5 A2.5,2.5 0 0 1 1066.5,464 " fill="#FFFFE0" style="stroke:#000000;stroke-width:1.5;"/><line style="stroke:#000000;stroke-width:1.5;" x1="1064" x2="1214.2451" y1="486.2969" y2="486.2969"/><text fill="#000000" font-family="sans-serif" font-size="14" font-weight="bold" lengthAdjust="spacing" textLength="137.2451" x="1068" y="478.9951">Statistics Service</text></g><!--class U--><g id="elem_U"><rect codeLine="4" fill="#ADD8E6" height="145.7813" id="U" rx="2.5" ry="2.5" style="stroke:#181818;stroke-width:0.5;" width="187.1367" x="254.5" y="45"/><ellipse cx="324.2163" cy="61" fill="#ADD1B2" rx="11" ry="11" style="stroke:#181818;stroke-width:1;"/><path d="M328.3257,67 L320.6069,67 L320.6069,54.6094 L328.3257,54.6094 L328.3257,56.7656 L323.0601,56.7656 L323.0601,59.4375 L327.8257,59.4375 L327.8257,61.5938 L323.0601,61.5938 L323.0601,64.8438 L328.3257,64.8438 L328.3257,67 Z " fill="#000000"/><text fill="#000000" font-family="sans-serif" font-size="14" lengthAdjust="spacing" textLength="39.2041" x="344.7163" y="65.8467">Users</text><line style="stroke:#181818;stroke-width:0.5;" x1="255.5" x2="440.6367" y1="77" y2="77"/><ellipse cx="265.5" cy="90.6484" fill="#000000" rx="3" ry="3" style="stroke:#000000;stroke-width:1;"/><text fill="#000000" font-family="sans-serif" font-size="14" lengthAdjust="spacing" textLength="82.1816" x="274.5" y="93.9951">user_id : int</text><text fill="#000000" font-family="sans-serif" font-size="14" lengthAdjust="spacing" textLength="124.0449" x="274.5" y="110.292">username : string</text><text fill="#000000" font-family="sans-serif" font-size="14" lengthAdjust="spacing" textLength="92.415" x="274.5" y="126.5889">email : string</text><text fill="#000000" font-family="sans-serif" font-size="14" lengthAdjust="spacing" textLength="161.1367" x="274.5" y="142.8857">password_hash : string</text><text fill="#000000" font-family="sans-serif" font-size="14" lengthAdjust="spacing" textLength="151.5186" x="274.5" y="159.1826">created_at : datetime</text><text fill="#000000" font-family="sans-serif" font-size="14" lengthAdjust="spacing" textLength="96.8242" x="274.5" y="175.4795">status : string</text><line style="stroke:#181818;stroke-width:0.5;" x1="255.5" x2="440.6367" y1="182.7813" y2="182.7813"/></g><!--class UP--><g id="elem_UP"><rect codeLine="13" fill="#ADD8E6" height="162.0781" id="UP" rx="2.5" ry="2.5" style="stroke:#181818;stroke-width:0.5;" width="182.0986" x="30" y="258"/><ellipse cx="73.0617" cy="274" fill="#ADD1B2" rx="11" ry="11" style="stroke:#181818;stroke-width:1;"/><path d="M77.1711,280 L69.4523,280 L69.4523,267.6094 L77.1711,267.6094 L77.1711,269.7656 L71.9055,269.7656 L71.9055,272.4375 L76.6711,272.4375 L76.6711,274.5938 L71.9055,274.5938 L71.9055,277.8438 L77.1711,277.8438 L77.1711,280 Z " fill="#000000"/><text fill="#000000" font-family="sans-serif" font-size="14" lengthAdjust="spacing" textLength="87.7393" x="93.2977" y="278.8467">User Profiles</text><line style="stroke:#181818;stroke-width:0.5;" x1="31" x2="211.0986" y1="290" y2="290"/><ellipse cx="41" cy="303.6484" fill="#000000" rx="3" ry="3" style="stroke:#000000;stroke-width:1;"/><text fill="#000000" font-family="sans-serif" font-size="14" lengthAdjust="spacing" textLength="96.1748" x="50" y="306.9951">profile_id : int</text><text fill="#000000" font-family="sans-serif" font-size="14" lengthAdjust="spacing" textLength="82.1816" x="50" y="323.292">user_id : int</text><text fill="#000000" font-family="sans-serif" font-size="14" lengthAdjust="spacing" textLength="127.8662" x="50" y="339.5889">first_name : string</text><text fill="#000000" font-family="sans-serif" font-size="14" lengthAdjust="spacing" textLength="125.7607" x="50" y="355.8857">last_name : string</text><text fill="#000000" font-family="sans-serif" font-size="14" lengthAdjust="spacing" textLength="75.1475" x="50" y="372.1826">bio : string</text><text fill="#000000" font-family="sans-serif" font-size="14" lengthAdjust="spacing" textLength="124.5918" x="50" y="388.4795">avatar_url : string</text><text fill="#000000" font-family="sans-serif" font-size="14" lengthAdjust="spacing" textLength="156.0986" x="50" y="404.7764">updated_at : datetime</text><line style="stroke:#181818;stroke-width:0.5;" x1="31" x2="211.0986" y1="412.0781" y2="412.0781"/></g><!--class US--><g id="elem_US"><rect codeLine="23" fill="#ADD8E6" height="162.0781" id="US" rx="2.5" ry="2.5" style="stroke:#181818;stroke-width:0.5;" width="178.2773" x="263" y="258"/><ellipse cx="300.1432" cy="274" fill="#ADD1B2" rx="11" ry="11" style="stroke:#181818;stroke-width:1;"/><path d="M304.2525,280 L296.5338,280 L296.5338,267.6094 L304.2525,267.6094 L304.2525,269.7656 L298.9869,269.7656 L298.9869,272.4375 L303.7525,272.4375 L303.7525,274.5938 L298.9869,274.5938 L298.9869,277.8438 L304.2525,277.8438 L304.2525,280 Z " fill="#000000"/><text fill="#000000" font-family="sans-serif" font-size="14" lengthAdjust="spacing" textLength="97.0703" x="319.0639" y="278.8467">User Sessions</text><line style="stroke:#181818;stroke-width:0.5;" x1="264" x2="440.2773" y1="290" y2="290"/><ellipse cx="274" cy="303.6484" fill="#000000" rx="3" ry="3" style="stroke:#000000;stroke-width:1;"/><text fill="#000000" font-family="sans-serif" font-size="14" lengthAdjust="spacing" textLength="103.4688" x="283" y="306.9951">session_id : int</text><text fill="#000000" font-family="sans-serif" font-size="14" lengthAdjust="spacing" textLength="82.1816" x="283" y="323.292">user_id : int</text><text fill="#000000" font-family="sans-serif" font-size="14" lengthAdjust="spacing" textLength="152.2773" x="283" y="339.5889">session_token : string</text><text fill="#000000" font-family="sans-serif" font-size="14" lengthAdjust="spacing" textLength="133.0479" x="283" y="355.8857">device_info : string</text><text fill="#000000" font-family="sans-serif" font-size="14" lengthAdjust="spacing" textLength="128.8916" x="283" y="372.1826">ip_address : string</text><text fill="#000000" font-family="sans-serif" font-size="14" lengthAdjust="spacing" textLength="151.5186" x="283" y="388.4795">created_at : datetime</text><text fill="#000000" font-family="sans-serif" font-size="14" lengthAdjust="spacing" textLength="149.2217" x="283" y="404.7764">expires_at : datetime</text><line style="stroke:#181818;stroke-width:0.5;" x1="264" x2="440.2773" y1="412.0781" y2="412.0781"/></g><!--class P--><g id="elem_P"><rect codeLine="38" fill="#90EE90" height="162.0781" id="P" rx="2.5" ry="2.5" style="stroke:#181818;stroke-width:0.5;" width="182.0986" x="834" y="258"/><ellipse cx="902.2568" cy="274" fill="#ADD1B2" rx="11" ry="11" style="stroke:#181818;stroke-width:1;"/><path d="M906.3662,280 L898.6475,280 L898.6475,267.6094 L906.3662,267.6094 L906.3662,269.7656 L901.1006,269.7656 L901.1006,272.4375 L905.8662,272.4375 L905.8662,274.5938 L901.1006,274.5938 L901.1006,277.8438 L906.3662,277.8438 L906.3662,280 Z " fill="#000000"/><text fill="#000000" font-family="sans-serif" font-size="14" lengthAdjust="spacing" textLength="37.085" x="922.7568" y="278.8467">Posts</text><line style="stroke:#181818;stroke-width:0.5;" x1="835" x2="1015.0986" y1="290" y2="290"/><ellipse cx="845" cy="303.6484" fill="#000000" rx="3" ry="3" style="stroke:#000000;stroke-width:1;"/><text fill="#000000" font-family="sans-serif" font-size="14" lengthAdjust="spacing" textLength="81.8809" x="854" y="306.9951">post_id : int</text><text fill="#000000" font-family="sans-serif" font-size="14" lengthAdjust="spacing" textLength="82.1816" x="854" y="323.292">user_id : int</text><text fill="#000000" font-family="sans-serif" font-size="14" lengthAdjust="spacing" textLength="81.1768" x="854" y="339.5889">title : string</text><text fill="#000000" font-family="sans-serif" font-size="14" lengthAdjust="spacing" textLength="107.4063" x="854" y="355.8857">content : string</text><text fill="#000000" font-family="sans-serif" font-size="14" lengthAdjust="spacing" textLength="151.5186" x="854" y="372.1826">created_at : datetime</text><text fill="#000000" font-family="sans-serif" font-size="14" lengthAdjust="spacing" textLength="156.0986" x="854" y="388.4795">updated_at : datetime</text><text fill="#000000" font-family="sans-serif" font-size="14" lengthAdjust="spacing" textLength="129.8008" x="854" y="404.7764">is_published : bool</text><line style="stroke:#181818;stroke-width:0.5;" x1="835" x2="1015.0986" y1="412.0781" y2="412.0781"/></g><!--class C--><g id="elem_C"><rect codeLine="48" fill="#90EE90" height="162.0781" id="C" rx="2.5" ry="2.5" style="stroke:#181818;stroke-width:0.5;" width="274.4316" x="513" y="494.5"/><ellipse cx="608.0229" cy="510.5" fill="#ADD1B2" rx="11" ry="11" style="stroke:#181818;stroke-width:1;"/><path d="M612.1323,516.5 L604.4136,516.5 L604.4136,504.1094 L612.1323,504.1094 L612.1323,506.2656 L606.8667,506.2656 L606.8667,508.9375 L611.6323,508.9375 L611.6323,511.0938 L606.8667,511.0938 L606.8667,514.3438 L612.1323,514.3438 L612.1323,516.5 Z " fill="#000000"/><text fill="#000000" font-family="sans-serif" font-size="14" lengthAdjust="spacing" textLength="75.8857" x="628.5229" y="515.3467">Comments</text><line style="stroke:#181818;stroke-width:0.5;" x1="514" x2="786.4316" y1="526.5" y2="526.5"/><ellipse cx="524" cy="540.1484" fill="#000000" rx="3" ry="3" style="stroke:#000000;stroke-width:1;"/><text fill="#000000" font-family="sans-serif" font-size="14" lengthAdjust="spacing" textLength="118.1592" x="533" y="543.4951">comment_id : int</text><text fill="#000000" font-family="sans-serif" font-size="14" lengthAdjust="spacing" textLength="81.8809" x="533" y="559.792">post_id : int</text><text fill="#000000" font-family="sans-serif" font-size="14" lengthAdjust="spacing" textLength="82.1816" x="533" y="576.0889">user_id : int</text><text fill="#000000" font-family="sans-serif" font-size="14" lengthAdjust="spacing" textLength="107.4063" x="533" y="592.3857">content : string</text><text fill="#000000" font-family="sans-serif" font-size="14" lengthAdjust="spacing" textLength="151.5186" x="533" y="608.6826">created_at : datetime</text><text fill="#000000" font-family="sans-serif" font-size="14" lengthAdjust="spacing" textLength="156.0986" x="533" y="624.9795">updated_at : datetime</text><text fill="#000000" font-family="sans-serif" font-size="14" lengthAdjust="spacing" textLength="248.4316" x="533" y="641.2764">parent_comment_id : int &#171;nullable&#187;</text><line style="stroke:#181818;stroke-width:0.5;" x1="514" x2="786.4316" y1="648.5781" y2="648.5781"/></g><!--class PL--><g id="elem_PL"><rect codeLine="58" fill="#90EE90" height="129.4844" id="PL" rx="2.5" ry="2.5" style="stroke:#181818;stroke-width:0.5;" width="177.5186" x="838.5" y="511"/><ellipse cx="888.0366" cy="527" fill="#ADD1B2" rx="11" ry="11" style="stroke:#181818;stroke-width:1;"/><path d="M892.146,533 L884.4272,533 L884.4272,520.6094 L892.146,520.6094 L892.146,522.7656 L886.8804,522.7656 L886.8804,525.4375 L891.646,525.4375 L891.646,527.5938 L886.8804,527.5938 L886.8804,530.8438 L892.146,530.8438 L892.146,533 Z " fill="#000000"/><text fill="#000000" font-family="sans-serif" font-size="14" lengthAdjust="spacing" textLength="69.9453" x="908.5366" y="531.8467">Post Likes</text><line style="stroke:#181818;stroke-width:0.5;" x1="839.5" x2="1015.0186" y1="543" y2="543"/><ellipse cx="849.5" cy="556.6484" fill="#000000" rx="3" ry="3" style="stroke:#000000;stroke-width:1;"/><text fill="#000000" font-family="sans-serif" font-size="14" lengthAdjust="spacing" textLength="76.1455" x="858.5" y="559.9951">like_id : int</text><text fill="#000000" font-family="sans-serif" font-size="14" lengthAdjust="spacing" textLength="81.8809" x="858.5" y="576.292">post_id : int</text><text fill="#000000" font-family="sans-serif" font-size="14" lengthAdjust="spacing" textLength="82.1816" x="858.5" y="592.5889">user_id : int</text><text fill="#000000" font-family="sans-serif" font-size="14" lengthAdjust="spacing" textLength="151.5186" x="858.5" y="608.8857">created_at : datetime</text><text fill="#000000" font-family="sans-serif" font-size="14" lengthAdjust="spacing" textLength="149.543" x="858.5" y="625.1826">reaction_type : string</text><line style="stroke:#181818;stroke-width:0.5;" x1="839.5" x2="1015.0186" y1="632.4844" y2="632.4844"/></g><!--class S--><g id="elem_S"><rect codeLine="72" fill="#FFFF00" height="145.7813" id="S" rx="2.5" ry="2.5" style="stroke:#181818;stroke-width:0.5;" width="193.2822" x="1520.5" y="502.5"/><ellipse cx="1580.8921" cy="518.5" fill="#ADD1B2" rx="11" ry="11" style="stroke:#181818;stroke-width:1;"/><path d="M1585.0015,524.5 L1577.2827,524.5 L1577.2827,512.1094 L1585.0015,512.1094 L1585.0015,514.2656 L1579.7358,514.2656 L1579.7358,516.9375 L1584.5015,516.9375 L1584.5015,519.0938 L1579.7358,519.0938 L1579.7358,522.3438 L1585.0015,522.3438 L1585.0015,524.5 Z " fill="#000000"/><text fill="#000000" font-family="sans-serif" font-size="14" lengthAdjust="spacing" textLength="63.998" x="1601.3921" y="523.3467">Statistics</text><line style="stroke:#181818;stroke-width:0.5;" x1="1521.5" x2="1712.7822" y1="534.5" y2="534.5"/><ellipse cx="1531.5" cy="548.1484" fill="#000000" rx="3" ry="3" style="stroke:#000000;stroke-width:1;"/><text fill="#000000" font-family="sans-serif" font-size="14" lengthAdjust="spacing" textLength="78.4971" x="1540.5" y="551.4951">stat_id : int</text><text fill="#000000" font-family="sans-serif" font-size="14" lengthAdjust="spacing" textLength="118.9316" x="1540.5" y="567.792">stat_type : string</text><text fill="#000000" font-family="sans-serif" font-size="14" lengthAdjust="spacing" textLength="142.2354" x="1540.5" y="584.0889">stat_date : datetime</text><text fill="#000000" font-family="sans-serif" font-size="14" lengthAdjust="spacing" textLength="75.6123" x="1540.5" y="600.3857">info: string</text><text fill="#000000" font-family="sans-serif" font-size="14" lengthAdjust="spacing" textLength="159.1543" x="1540.5" y="616.6826">aggregated_by : string</text><text fill="#000000" font-family="sans-serif" font-size="14" lengthAdjust="spacing" textLength="167.2822" x="1540.5" y="632.9795">last_updated : datetime</text><line style="stroke:#181818;stroke-width:0.5;" x1="1521.5" x2="1712.7822" y1="640.2813" y2="640.2813"/></g><!--class PV--><g id="elem_PV"><rect codeLine="82" fill="#FFFF00" height="145.7813" id="PV" rx="2.5" ry="2.5" style="stroke:#181818;stroke-width:0.5;" width="173.6836" x="1304.5" y="503"/><ellipse cx="1349.5591" cy="519" fill="#ADD1B2" rx="11" ry="11" style="stroke:#181818;stroke-width:1;"/><path d="M1353.6685,525 L1345.9497,525 L1345.9497,512.6094 L1353.6685,512.6094 L1353.6685,514.7656 L1348.4028,514.7656 L1348.4028,517.4375 L1353.1685,517.4375 L1353.1685,519.5938 L1348.4028,519.5938 L1348.4028,522.8438 L1353.6685,522.8438 L1353.6685,525 Z " fill="#000000"/><text fill="#000000" font-family="sans-serif" font-size="14" lengthAdjust="spacing" textLength="75.0654" x="1370.0591" y="523.8467">Post Views</text><line style="stroke:#181818;stroke-width:0.5;" x1="1305.5" x2="1477.1836" y1="535" y2="535"/><ellipse cx="1315.5" cy="548.6484" fill="#000000" rx="3" ry="3" style="stroke:#000000;stroke-width:1;"/><text fill="#000000" font-family="sans-serif" font-size="14" lengthAdjust="spacing" textLength="83.8838" x="1324.5" y="551.9951">view_id : int</text><text fill="#000000" font-family="sans-serif" font-size="14" lengthAdjust="spacing" textLength="81.8809" x="1324.5" y="568.292">post_id : int</text><text fill="#000000" font-family="sans-serif" font-size="14" lengthAdjust="spacing" textLength="82.1816" x="1324.5" y="584.5889">user_id : int</text><text fill="#000000" font-family="sans-serif" font-size="14" lengthAdjust="spacing" textLength="147.6836" x="1324.5" y="600.8857">view_time : datetime</text><text fill="#000000" font-family="sans-serif" font-size="14" lengthAdjust="spacing" textLength="125.4053" x="1324.5" y="617.1826">session_id : string</text><text fill="#000000" font-family="sans-serif" font-size="14" lengthAdjust="spacing" textLength="138.0654" x="1324.5" y="633.4795">device_type : string</text><line style="stroke:#181818;stroke-width:0.5;" x1="1305.5" x2="1477.1836" y1="640.7813" y2="640.7813"/></g><!--class UL--><g id="elem_UL"><rect codeLine="91" fill="#FFFF00" height="145.7813" id="UL" rx="2.5" ry="2.5" style="stroke:#181818;stroke-width:0.5;" width="165.9453" x="1088.5" y="503"/><ellipse cx="1131.3464" cy="519" fill="#ADD1B2" rx="11" ry="11" style="stroke:#181818;stroke-width:1;"/><path d="M1135.4558,525 L1127.737,525 L1127.737,512.6094 L1135.4558,512.6094 L1135.4558,514.7656 L1130.1901,514.7656 L1130.1901,517.4375 L1134.9558,517.4375 L1134.9558,519.5938 L1130.1901,519.5938 L1130.1901,522.8438 L1135.4558,522.8438 L1135.4558,525 Z " fill="#000000"/><text fill="#000000" font-family="sans-serif" font-size="14" lengthAdjust="spacing" textLength="72.0645" x="1151.5345" y="523.8467">User Likes</text><line style="stroke:#181818;stroke-width:0.5;" x1="1089.5" x2="1253.4453" y1="535" y2="535"/><ellipse cx="1099.5" cy="548.6484" fill="#000000" rx="3" ry="3" style="stroke:#000000;stroke-width:1;"/><text fill="#000000" font-family="sans-serif" font-size="14" lengthAdjust="spacing" textLength="76.1455" x="1108.5" y="551.9951">like_id : int</text><text fill="#000000" font-family="sans-serif" font-size="14" lengthAdjust="spacing" textLength="81.8809" x="1108.5" y="568.292">post_id : int</text><text fill="#000000" font-family="sans-serif" font-size="14" lengthAdjust="spacing" textLength="82.1816" x="1108.5" y="584.5889">user_id : int</text><text fill="#000000" font-family="sans-serif" font-size="14" lengthAdjust="spacing" textLength="139.9453" x="1108.5" y="600.8857">like_time : datetime</text><text fill="#000000" font-family="sans-serif" font-size="14" lengthAdjust="spacing" textLength="109.3545" x="1108.5" y="617.1826">location : string</text><text fill="#000000" font-family="sans-serif" font-size="14" lengthAdjust="spacing" textLength="138.4346" x="1108.5" y="633.4795">app_version : string</text><line style="stroke:#181818;stroke-width:0.5;" x1="1089.5" x2="1253.4453" y1="640.7813" y2="640.7813"/></g><!--link U to UP--><g id="link_U_UP"><path codeLine="33" d="M254,89.5 C202.41,89.5 270.59,318 219,318 " fill="none" id="U-to-UP" style="stroke:#181818;stroke-width:1;"/><polygon fill="#181818" points="213,318,222,322,218,318,222,314,213,318" style="stroke:#181818;stroke-width:1;"/></g><!--link U to US--><g id="link_U_US"><path codeLine="34" d="M443,89.5 C489.45,89.5 469.31,156.43 442,194 C392.67,261.87 312.53,186.28 263,254 C246.21,276.96 227.55,318 256,318 " fill="none" id="U-to-US" style="stroke:#181818;stroke-width:1;"/><polygon fill="#181818" points="262,318,253,314,257,318,253,322,262,318" style="stroke:#181818;stroke-width:1;"/></g><!--link P to C--><g id="link_P_C"><path codeLine="66" d="M833,302 C776,302 851,554.5 794,554.5 " fill="none" id="P-to-C" style="stroke:#181818;stroke-width:1;"/><polygon fill="#181818" points="788,554.5,797,558.5,793,554.5,797,550.5,788,554.5" style="stroke:#181818;stroke-width:1;"/></g><!--link P to PL--><g id="link_P_PL"><path codeLine="67" d="M1017,302 C1071.22,302 1045.27,378.36 1016,424 C969.09,497.14 886.17,434.03 839,507 C823.43,531.08 803.33,571.5 832,571.5 " fill="none" id="P-to-PL" style="stroke:#181818;stroke-width:1;"/><polygon fill="#181818" points="838,571.5,829,567.5,833,571.5,829,575.5,838,571.5" style="stroke:#181818;stroke-width:1;"/></g><!--link C to C--><g id="link_C_C"><path codeLine="68" d="M651.88,627.46 C667.48,553.6 666.85,372.5 650,372.5 C633.18,372.5 631.1803,457.4538 646.6803,524.5938 " fill="none" id="C-to-C" style="stroke:#181818;stroke-width:1;"/><polygon fill="#181818" points="648.03,530.44,649.903,520.7709,646.9053,525.5681,642.108,522.5704,648.03,530.44" style="stroke:#181818;stroke-width:1;"/></g><!--link P to PV--><g id="link_P_PV"><path codeLine="100" d="M1017,302 C1152.07,302 1198.99,347.17 1279,456 C1308.06,495.52 1248.95,563.5 1298,563.5 " fill="none" id="P-to-PV" style="stroke:#181818;stroke-width:1;"/><polygon fill="#181818" points="1304,563.5,1295,559.5,1299,563.5,1295,567.5,1304,563.5" style="stroke:#181818;stroke-width:1;"/></g><!--link P to UL--><g id="link_P_UL"><path codeLine="101" d="M1017,302 C1137.43,302 961.57,563.5 1082,563.5 " fill="none" id="P-to-UL" style="stroke:#181818;stroke-width:1;"/><polygon fill="#181818" points="1088,563.5,1079,559.5,1083,563.5,1079,567.5,1088,563.5" style="stroke:#181818;stroke-width:1;"/></g><!--link U to P--><g id="link_U_P"><path codeLine="104" d="M443,89.5 C643.89,89.5 626.11,318 827,318 " fill="none" id="U-to-P" style="stroke:#181818;stroke-width:1;"/><polygon fill="#181818" points="833,318,824,314,828,318,824,322,833,318" style="stroke:#181818;stroke-width:1;"/></g><!--SRC=[hLPDZjem5DvpYYTcKQdIN02DsB1b4Gd1Dd8I4onC7DaE55KZpS-Yk_O4lGEgYafdrCuLd1lDSmWG4cSqCor297xli_E-vyzV-03ckzb0VciUy_lyYzcOts2sTcXsO7xW5-yVp5_pqsp1_B4_ln3qXE3R_CxiyZl0mOtP8UZHRCqJhlCj_meutEGt5e6J7lBxJYSbuPp45BfZHQM24PLB5j8kN12Eru1d53vt03yqqKolIrmNY88nN70MptG51F0HCWJuB88Ui4H36RR1X2meHfMMB8dBE5qGnkl1b2Yr4ZBoPqJDwibGKg9fv1EDcGXlDLlGCgSqqPawdt7TQPGFdXHJncb9mtFpIFUW8vKAatfiogJIleiV9os9W8bwY2o99jBFPACXMHgrS7Qn6r6bc4XATYCtExK7lORT0Qh5d2RrqY9gzUApPDhWmrAVH974sM_PG_efPJYddUkurpjKUNdPn-qxZftfqIbzNP6x9vIkodqc4hgEwAgczW9MDFAWabXIx4959eXuJHTnFTvGGIWIZOzwIt_QjO0TLtwQ1Pof6RKF3uJWBfKCn6A1ztjUWnPUuHvKf_5Qkl-PMKgaBQPU55nT9Hdd9E2qttTHjVi7GpOlpxetR67B4V9kgYzmmbIeYyEpJgdJc52-XmTPlGwEGrVM6vwdBRhHcNAPK-HC-2FqIAOq2wlgBtgoffoB-W4umOi6efkSmGehGKZ3CsoioRbCs2Ovr8iUKhV463SgBheRh9tUMegckLgh6YQChaerJ1nibfX-hnAAkRO6nwkfwhSk1sqLo9ctdwGy7ZgA_nSP5tFTnNCH4glYnXihJVqb_XrefDpQzYOlYdjS4JSkK3Foayq_0m00]--></g></svg>